<svg xmlns="http://www.w3.org/2000/svg" viewBox="0 0 48 48" width="48" height="48"><path d="M24 22 C18 8 4 8 6 20 C7 26 18 26 24 22 Z" fill="#d2d2d2" stroke="#333333" stroke-linejoin="round" stroke-linecap="round" stroke-width="2"/><path d="M24 22 C30 8 44 8 42 20 C41 26 30 26 24 22 Z" fill="#d2d2d2" stroke="#333333" stroke-linejoin="round" stroke-linecap="round" stroke-width="2"/><path d="M24 24 C20 26 10 30 13 37 C17 40 22 32 24 24 Z" fill="#ececec" stroke="#333333" stroke-linejoin="round" stroke-linecap="round" stroke-width="2"/><path d="M24 24 C28 26 38 30 35 37 C31 40 26 32 24 24 Z" fill="#ececec" stroke="#333333" stroke-linejoin="round" stroke-linecap="round" stroke-width="2"/><ellipse cx="24" cy="26" rx="1.8" ry="9" fill="#333333"/><path d="M23 18 C21 12 18 10 17 9 M25 18 C27 12 30 10 31 9" fill="none" stroke="#333333" stroke-linejoin="round" stroke-linecap="round" stroke-width="1.4"/></svg>
